# xmcd
#
# Track frame offsets:
#	225
#	20504
#	36345
#	51701
#	66314
#	80096
#	95712
#	112405
#	124627
#	140457
#	161688
#	176618
#
# Disc length: 2548 seconds
#
# Revision: 1
# Processed by: cddbd v1.5.2PL0 Copyright (c) Steve Scherf et al.
# Submitted via: EZCDAudioConverter 6.0.8.1
#
DISCID=b909f10c
DTITLE=מקהלות הצבא הישראלי - שירים שקרובים ללבי
DYEAR=2002
DGENRE=ישראלי
TTITLE0=חבורת הזמר של פיקוד הצפון - בלילה על הדשא
TTITLE1=להקת פיקוד המרכז - שירו של הצנחן
TTITLE2=להקת גייסות השריון - מי שחלם
TTITLE3=להקת פיקוד הצפון - אם תשוב
TTITLE4=חבורת הזמר של פיקוד הצפון - בוא איתי אל הגליל
TTITLE5=להקת גייסות השריון - אחי הצעיר יהודה
TTITLE6=להקת הנח"ל - קרנבל בנח"ל
TTITLE7=להקת גייסות השריון - שלא לאהוב אותך
TTITLE8=להקת פיקוד המרכז - אנחנו מאותו כפר
TTITLE9=צוות הווי הנדסה קרבית - צוחק מי שצוחק אחרון
TTITLE10=להקת גייסות השריון - לילה בדרום
TTITLE11=להקת התותחנים - פרחים בקנה
EXTD=
EXTT0=
EXTT1=
EXTT2=
EXTT3=
EXTT4=
EXTT5=
EXTT6=
EXTT7=
EXTT8=
EXTT9=
EXTT10=
EXTT11=
PLAYORDER=
